<?xml version="1.0" encoding="UTF-8"?>
<svg width="56px" height="58px" viewBox="0 0 56 58" version="1.1" xmlns="http://www.w3.org/2000/svg" xmlns:xlink="http://www.w3.org/1999/xlink">
    <!-- Generator: Sketch 44.1 (41455) - http://www.bohemiancoding.com/sketch -->
    <title>sprite-upload</title>
    <desc>Created with Sketch.</desc>
    <defs></defs>
    <g id="Symbols" stroke="none" stroke-width="1" fill="none" fill-rule="evenodd">
        <g id="sprite-upload" fill-rule="nonzero" fill="#D6D6D6">
            <path d="M0,37 L7.76027478,37 L7.76027478,50.1926277 L48.2002725,50.1926277 L48.2002725,37.0411948 L55.9914647,37.0411948 L55.9914647,37.5458308 C55.9914647,42.9698099 55.9914647,48.393789 55.9914647,53.8177682 C56.0664174,54.9525998 55.6449566,56.0641006 54.8362632,56.8643322 C54.0275697,57.6645638 52.9112127,58.0747897 51.7763885,57.9887395 C35.9397941,57.9887395 20.0997644,57.9887395 4.25629945,57.9887395 C2.25967417,58.0988634 0.480045067,56.7399382 0.0618348588,54.7858455 C0.0450769102,54.749348 0.0243397889,54.71481 2.4862917e-15,54.6828585 L0,37 Z" id="Shape"></path>
            <path d="M23.2539653,36 C22.8201835,35.8119164 22.5624004,35.355224 22.6225639,34.8813997 C22.6225639,28.9621398 22.6225639,23.0428799 22.6225639,17.1236201 C22.6225639,16.9338575 22.6225639,16.7341075 22.6225639,16.4844199 L22.1292816,16.4844199 L17.4430992,16.4844199 C17.1493831,16.4856075 16.8559575,16.4655817 16.5650566,16.4244949 C16.052043,16.3445949 15.8645957,16.0349823 16.1013712,15.5655697 C16.3237658,15.1816231 16.5778929,14.8174414 16.8610261,14.4769319 C18.9426776,11.6704436 21.0736573,8.86395541 23.2046371,6.03749217 C24.3194552,4.56932929 25.4737359,3.13112891 26.6280166,1.69292854 C27.3778058,0.754103293 28.1177293,0.784065801 28.8773841,1.69292854 L37.4210344,12.1498438 C38.1905549,13.1419357 38.9567868,14.1007359 39.7197302,15.0262445 C39.8300127,15.1680972 39.9105777,15.3312173 39.9565057,15.5056446 C40.0154501,15.612993 40.0144207,15.7437824 39.9537942,15.8501664 C39.8931677,15.9565503 39.7818394,16.0229197 39.6605363,16.0249948 C39.3997253,16.0710495 39.1359394,16.0977539 38.8712845,16.1048948 C37.154662,16.1048948 35.447905,16.1048948 33.7312824,16.1048948 C33.3169253,16.1048948 33.1689406,16.1947823 33.1788062,16.6442199 C33.1788062,22.7166215 33.1788062,28.7790356 33.1788062,34.8514372 C33.2443097,35.3311223 32.9918484,35.7976564 32.5572705,36 L23.2539653,36 Z" id="Shape"></path>
        </g>
    </g>
</svg>