<?xml version="1.0" encoding="UTF-8"?><svg width="102" height="58" viewBox="0 0 102 58" xmlns="http://www.w3.org/2000/svg" xmlns:xlink="http://www.w3.org/1999/xlink"><svg width="16" height="30" viewBox="0 0 16 30" id="L1VzZXJzL2t1a2tvbWFoL3Byb2plY3RzL3NjdnQtY29uc3RydWN0b3Ivc3JjL21vZHVsZXMvaGVhZGVyL3Nwcml0ZS1waG9uZS5zdmc=" x="56" xmlns="http://www.w3.org/2000/svg"><title>sprite-phone</title><g fill-rule="nonzero" fill="#000"><path d="M12.132 30H3.866C1.731 30 0 28.312 0 26.23V3.77C0 1.688 1.73 0 3.866 0h8.276c2.131.006 3.856 1.692 3.856 3.77v22.46c0 1-.408 1.959-1.133 2.666A3.917 3.917 0 0 1 12.132 30zm0-29.38H3.866C2.082.62.636 2.03.636 3.77v22.46c0 1.74 1.446 3.15 3.23 3.15h8.276a3.273 3.273 0 0 0 2.29-.92c.609-.59.95-1.393.95-2.23V3.77a3.101 3.101 0 0 0-.95-2.237 3.263 3.263 0 0 0-2.3-.913z"/><path d="M1.805 5.64h12.378v18.51H1.805zM10.706 3.55a.354.354 0 0 1-.078.267.372.372 0 0 1-.25.133H5.609a.362.362 0 0 1-.317-.4.363.363 0 0 1 .328-.39h4.758c.2.021.346.195.328.39zM8.399 26.13h-.8c-.215 0-.39.17-.39.38v.61c0 .21.175.38.39.38h.79c.215 0 .39-.17.39-.38v-.61a.385.385 0 0 0-.38-.38z"/><path d="M7.999 25.24c-.89 0-1.61.703-1.61 1.57 0 .867.72 1.57 1.61 1.57.889 0 1.61-.703 1.61-1.57 0-.867-.721-1.57-1.61-1.57zm.923 1.88a.517.517 0 0 1-.523.5h-.8a.506.506 0 0 1-.513-.5v-.61c0-.276.23-.5.513-.5h.79a.52.52 0 0 1 .369.143.494.494 0 0 1 .154.357l.01.61z"/></g></svg><svg width="30" height="30" viewBox="0 0 30 30" id="L1VzZXJzL2t1a2tvbWFoL3Byb2plY3RzL3NjdnQtY29uc3RydWN0b3Ivc3JjL21vZHVsZXMvaGVscC9zcHJpdGUtaGVscC5zdmc=" x="72" xmlns="http://www.w3.org/2000/svg"><title>sprite-help</title><defs><radialGradient cx="53.123%" cy="49.923%" fx="53.123%" fy="49.923%" r="53.067%" id="ba"><stop stop-color="#BCD0E4" offset="0%"/><stop stop-color="#B3C8DF" offset="10%"/><stop stop-color="#99B4D0" offset="26%"/><stop stop-color="#7093B9" offset="47%"/><stop stop-color="#376699" offset="71%"/><stop stop-color="#003A7A" offset="91%"/><stop stop-color="#003A7A" offset="99%"/></radialGradient></defs><circle cx="15" cy="15" r="15" stroke="#898989" fill-rule="nonzero" stroke-width=".5" fill="url(#ba)" opacity=".8"/></svg><svg width="56" height="58" viewBox="0 0 56 58" id="L1VzZXJzL2t1a2tvbWFoL3Byb2plY3RzL3NjdnQtY29uc3RydWN0b3Ivc3JjL21vZHVsZXMvc2xpZGVyL3Nwcml0ZS11cGxvYWQuc3Zn" xmlns="http://www.w3.org/2000/svg"><title>sprite-upload</title><g fill-rule="nonzero" fill="#D6D6D6"><path d="M0 37h7.76v13.193H48.2V37.04h7.791V53.818a3.922 3.922 0 0 1-4.215 4.17H4.256a4.06 4.06 0 0 1-4.194-3.202.546.546 0 0 0-.062-.103V37zM23.254 36a1.07 1.07 0 0 1-.631-1.119V17.124v-.64h-5.18a6.102 6.102 0 0 1-.878-.06c-.513-.08-.7-.389-.464-.858a7.88 7.88 0 0 1 .76-1.09c2.082-2.806 4.213-5.612 6.344-8.439a205.866 205.866 0 0 1 3.423-4.344c.75-.939 1.49-.909 2.25 0L37.42 12.15c.77.992 1.536 1.95 2.299 2.876.11.142.19.305.237.48a.353.353 0 0 1-.003.344.345.345 0 0 1-.293.175c-.261.046-.525.073-.79.08h-5.14c-.414 0-.562.09-.552.54V34.85c.065.48-.187.947-.622 1.149h-9.303z"/></g></svg><svg width="19" height="22" viewBox="0 0 19 22" id="L1VzZXJzL2t1a2tvbWFoL3Byb2plY3RzL3NjdnQtY29uc3RydWN0b3Ivc3JjL21vZHVsZXMvcmVtb3ZlL3Nwcml0ZS10cmFzaC5zdmc=" x="72" y="30" xmlns="http://www.w3.org/2000/svg"><title>sprite-trash</title><g fill-rule="nonzero" fill="#FFF"><path d="M9.854 0c.416.105.822.242 1.214.41.813.408 1.38 1.147 1.534 2 0 .15.096.19.256.19h3.345c1.277-.04 2.406.772 2.695 1.94.358 1.198-.253 2.463-1.448 3a.267.267 0 0 0-.17.3v11.58c.054 1.014-.571 1.953-1.567 2.35a2.843 2.843 0 0 1-1.065.23H4.42a2.75 2.75 0 0 1-1.918-.764 2.417 2.417 0 0 1-.745-1.826V7.88a.338.338 0 0 0-.234-.37C.397 6.987-.204 5.812.063 4.66c.216-1.088 1.18-1.906 2.354-2 .927-.05 1.865 0 2.792 0h.958c.118 0 .171 0 .203-.15C6.562 1.206 7.654.18 9.044 0H9.854zm6.136 7.8H2.982v11.57c-.037.377.1.75.378 1.024s.668.422 1.071.406h10.11c.228.002.453-.042.66-.13.533-.24.848-.768.79-1.32V7.8zm-6.488-4H2.78a1.504 1.504 0 0 0-1.34.7 1.318 1.318 0 0 0 .04 1.44c.283.452.819.709 1.374.66h13.392c.492.004.954-.226 1.227-.611.273-.386.32-.874.126-1.299-.218-.56-.806-.915-1.438-.87L9.502 3.8zm1.822-1.2c-.192-.88-1.062-1.48-2.014-1.39-.832.054-1.515.638-1.651 1.41l3.665-.02z"/><path d="M12.992 15.034v3.329a.65.65 0 0 1-.193.514.433.433 0 0 1-.465.09c-.178-.062-.307-.244-.33-.463a2.495 2.495 0 0 1 0-.303v-6.364-.242c0-.329.223-.595.498-.595s.498.266.498.595v3.399l-.008.04zM9.992 15.034v3.329a.65.65 0 0 1-.193.514.433.433 0 0 1-.465.09c-.178-.062-.307-.244-.33-.463a2.495 2.495 0 0 1 0-.303v-6.364-.242c0-.329.223-.595.498-.595s.498.266.498.595v3.399l-.008.04zM6.992 15.034v3.329a.65.65 0 0 1-.193.514.433.433 0 0 1-.465.09c-.178-.062-.307-.244-.33-.463a2.495 2.495 0 0 1 0-.303v-6.364-.242c0-.329.223-.595.498-.595s.498.266.498.595v3.399l-.008.04z"/></g></svg></svg>