<?xml version="1.0" encoding="UTF-8"?><svg width="114" height="84" viewBox="0 0 114 84" xmlns="http://www.w3.org/2000/svg" xmlns:xlink="http://www.w3.org/1999/xlink"><svg width="17" height="14" viewBox="0 0 17 14" id="L1VzZXJzL2t1a2tvbWFoL3Byb2plY3RzL3NjdnQtY29uc3RydWN0b3Ivc3JjL21vZHVsZXMvZm9vdGVyL3Nwcml0ZS10dy5zdmc=" y="70" xmlns="http://www.w3.org/2000/svg"><title>sprite-tw</title><path d="M0 12.481a7.744 7.744 0 0 0 5-1.523 3.677 3.677 0 0 1-3.24-2.479h1.46A3.756 3.756 0 0 1 .5 4.984l1.5.399a3.733 3.733 0 0 1-1-4.73 10.185 10.185 0 0 0 7.27 3.684 8.535 8.535 0 0 1 .01-1.344 3.339 3.339 0 0 1 2.3-2.768 3.391 3.391 0 0 1 3.53.687c.151.161.388.209.59.12l1.85-.657a4.451 4.451 0 0 1-1.36 1.862L17 1.749a6.213 6.213 0 0 1-1.46 1.573.477.477 0 0 0-.22.428 10.09 10.09 0 0 1-2.61 6.97 9.384 9.384 0 0 1-6.4 3.225 10.24 10.24 0 0 1-5.58-.996c-.25-.179-.49-.328-.73-.468z" fill-rule="nonzero" fill="#FFF"/></svg><svg width="21" height="12" viewBox="0 0 21 12" id="L1VzZXJzL2t1a2tvbWFoL3Byb2plY3RzL3NjdnQtY29uc3RydWN0b3Ivc3JjL21vZHVsZXMvZm9vdGVyL3Nwcml0ZS12ay5zdmc=" y="58" xmlns="http://www.w3.org/2000/svg"><title>sprite-vk</title><path d="M20.462 10.327a41.75 41.75 0 0 0-2.238-2.35c-.759-.73-.999-1.18-.2-2.21.63-.85 1.29-1.67 1.879-2.54.363-.526.671-1.09.92-1.68.249-.6 0-.89-.65-.89h-3.188c-.759 0-.839.06-1.129.76a16.354 16.354 0 0 1-1.968 3.56c-.223.3-.477.575-.76.82a.44.44 0 0 1-.779-.2 3.052 3.052 0 0 1-.16-1c0-1.1.07-2.2.1-3.3a.85.85 0 0 0-.709-1 6.22 6.22 0 0 0-4.166.13c-.184.097-.358.21-.52.34a.92.92 0 0 0 .1.12h.1c.505.1.9.495.999 1a6.355 6.355 0 0 1-.1 3.56c-.14.49-.51.6-.89.25a4 4 0 0 1-.818-1 49.212 49.212 0 0 1-1.799-3.38 1 1 0 0 0-1.089-.71H.67c-.61.02-.809.29-.57.84a34.067 34.067 0 0 0 4.227 7.31 8.114 8.114 0 0 0 3.477 2.78 9.195 9.195 0 0 0 3.467.44c.73 0 .91-.2 1-.92.017-.434.09-.864.22-1.28.19-.57.649-.7 1.158-.36.212.144.406.312.58.5.34.36.64.77.999 1.1.36.33.78.78 1.199.82a40.39 40.39 0 0 0 4.126.07c.37 0 .53-.32.41-.7a2.46 2.46 0 0 0-.5-.88z" fill-rule="nonzero" fill="#FFF"/></svg><svg width="9" height="18" viewBox="0 0 9 18" id="L1VzZXJzL2t1a2tvbWFoL3Byb2plY3RzL3NjdnQtY29uc3RydWN0b3Ivc3JjL21vZHVsZXMvZm9vdGVyL3Nwcml0ZS1mYi5zdmc=" x="86" y="20" xmlns="http://www.w3.org/2000/svg"><title>sprite-fb</title><path d="M9 .015v2.997H7.254c-1.108 0-1.338.23-1.369 1.29V5.96H8.78l-.344 3.047h-2.54V18H1.63V9.007H0V6.01h1.6v-.44-2.228c-.041-.86.292-1.698.919-2.317a3.35 3.35 0 0 1 2.394-.95C6.272-.045 7.61.015 9 .015z" fill-rule="nonzero" fill="#FFF"/></svg><svg width="12" height="20" viewBox="0 0 12 20" id="L1VzZXJzL2t1a2tvbWFoL3Byb2plY3RzL3NjdnQtY29uc3RydWN0b3Ivc3JjL21vZHVsZXMvZm9vdGVyL3Nwcml0ZS1vay5zdmc=" x="86" xmlns="http://www.w3.org/2000/svg"><title>sprite-ok</title><g fill-rule="nonzero" fill="#FFF"><path d="M5.996 16.594a2.44 2.44 0 0 1-.159.212L3.13 19.583c-.295.36-.775.504-1.215.364a1.355 1.355 0 0 1-.936-1.01 1.092 1.092 0 0 1 .22-.96c.064-.081.134-.159.208-.231l3.475-3.525a.834.834 0 0 1 .19-.11L5 14.028l-.996-.14A6.93 6.93 0 0 1 .49 12.191a1.108 1.108 0 0 1-.468-1.141c.088-.484.44-.876.906-1.01.434-.086.883.029 1.225.313.284.208.584.394.896.555a6.706 6.706 0 0 0 3.983.576 6.194 6.194 0 0 0 2.31-.788c.18-.11.349-.252.528-.373a1.419 1.419 0 0 1 1.195-.293c.465.136.816.526.906 1.01.1.428-.065.875-.418 1.13a6.726 6.726 0 0 1-3.197 1.626c-.428.091-.866.152-1.334.232l.15.162 3.534 3.595c.434.362.548.99.27 1.484a1.25 1.25 0 0 1-.738.655 1.23 1.23 0 0 1-.976-.09 1.767 1.767 0 0 1-.348-.282l-2.718-2.747c-.05-.05-.09-.11-.2-.212z"/><path d="M6 0a5.06 5.06 0 1 1 .12 10.12A5.06 5.06 0 0 1 6 0zm0 7.55a2.49 2.49 0 1 0 .039-4.98A2.49 2.49 0 0 0 6 7.55z"/></g></svg><svg width="17" height="10" viewBox="0 0 17 10" id="L1VzZXJzL2t1a2tvbWFoL3Byb2plY3RzL3NjdnQtY29uc3RydWN0b3Ivc3JjL21vZHVsZXMvZm9ybS9zcHJpdGUtY2hlY2tib3guc3Zn" x="21" y="58" xmlns="http://www.w3.org/2000/svg"><title>sprite-checkbox</title><g fill-rule="nonzero" fill="#0000F9"><path d="M6.236 8.759L15.778.188a.74.74 0 0 1 1.03.044.704.704 0 0 1-.044 1.01l-9.542 8.57a.74.74 0 0 1-1.03-.044.704.704 0 0 1 .044-1.01z"/><path d="M1.268 3.2l5.987 5.505c.306.28.323.754.04 1.056a.76.76 0 0 1-1.066.04L.24 4.294a.742.742 0 0 1-.04-1.056.76.76 0 0 1 1.067-.04z"/></g></svg><svg width="12" height="12" viewBox="0 0 12 12" id="L1VzZXJzL2t1a2tvbWFoL3Byb2plY3RzL3NjdnQtY29uc3RydWN0b3Ivc3JjL21vZHVsZXMvZm9ybS9zcHJpdGUtY2xvc2Uuc3Zn" x="98" y="16" xmlns="http://www.w3.org/2000/svg"><title>sprite-close</title><g stroke="#000" stroke-width="1.5" fill="none" fill-rule="evenodd" stroke-linecap="round"><path d="M0 12L12 0M0 0l12 12"/></g></svg><svg width="10" height="24" viewBox="0 0 10 24" id="L1VzZXJzL2t1a2tvbWFoL3Byb2plY3RzL3NjdnQtY29uc3RydWN0b3Ivc3JjL21vZHVsZXMvZm9ybS9zcHJpdGUtZmlsZS5zdmc=" x="56" y="30" xmlns="http://www.w3.org/2000/svg"><title>sprite-file</title><path d="M1.378 22.54c-.932-.885-1.43-2.099-1.374-3.347V7.283c0-.52.117-1 .761-1 .645 0 .655.51.655 1v11.67c0 1.999.983 3.228 2.726 3.617a3.691 3.691 0 0 0 3.013-.564c.86-.613 1.377-1.565 1.404-2.583.053-5.236 0-10.462 0-15.698a2.13 2.13 0 0 0-.65-1.693 2.397 2.397 0 0 0-1.77-.665c-1.336.09-2.353 1.172-2.293 2.438v9.992c0 .87.434 1.37 1.12 1.38.687.01 1.173-.53 1.173-1.43V7.662v-.49c0-.5.148-.91.74-.91s.666.42.666.87v6.905c.012 1.323-1.085 2.419-2.484 2.478a2.576 2.576 0 0 1-1.865-.664 2.295 2.295 0 0 1-.755-1.744c0-3.587-.053-7.175 0-10.762C2.565 1.579 4.035.163 5.9.018 7.81-.163 9.546 1.07 9.894 2.855c.073.35.108.704.106 1.06v15.368c-.03 1.88-1.202 3.577-3.011 4.357-1.933.746-4.151.311-5.611-1.1z" fill-rule="nonzero" fill="#000"/></svg><svg width="30" height="30" viewBox="0 0 30 30" id="L1VzZXJzL2t1a2tvbWFoL3Byb2plY3RzL3NjdnQtY29uc3RydWN0b3Ivc3JjL21vZHVsZXMvaGVscC9zcHJpdGUtaGVscC5zdmc=" x="56" xmlns="http://www.w3.org/2000/svg"><title>sprite-help</title><defs><radialGradient cx="53.123%" cy="49.923%" fx="53.123%" fy="49.923%" r="53.067%" id="ha"><stop stop-color="#BCD0E4" offset="0%"/><stop stop-color="#B3C8DF" offset="10%"/><stop stop-color="#99B4D0" offset="26%"/><stop stop-color="#7093B9" offset="47%"/><stop stop-color="#376699" offset="71%"/><stop stop-color="#003A7A" offset="91%"/><stop stop-color="#003A7A" offset="99%"/></radialGradient></defs><circle cx="15" cy="15" r="15" stroke="#898989" fill-rule="nonzero" stroke-width=".5" fill="url(#ha)" opacity=".8"/></svg><svg viewBox="0 0 16 16" width="16" height="16" id="L1VzZXJzL2t1a2tvbWFoL3Byb2plY3RzL3NjdnQtY29uc3RydWN0b3Ivc3JjL21vZHVsZXMvbGlzdC9zcHJpdGUtdXBsb2FkLXNtYWxsLnN2Zw==" x="98" xmlns="http://www.w3.org/2000/svg"><defs><style>.icls-1{fill:#3c4048}</style></defs><title>Ресурс 3</title><g id="iСлой_2" data-name="Слой 2"><g id="iСлой_1-2" data-name="Слой 1"><path class="icls-1" d="M0 10.24h2.22v3.62h11.55v-3.61H16V14.86A1.1 1.1 0 0 1 14.8 16H1.22A1.15 1.15 0 0 1 0 15.12z"/><path class="icls-1" d="M6.62 10.57a.33.33 0 0 1-.18-.34V4.86v-.19H4.66c-.15 0-.2-.12-.13-.26a2.39 2.39 0 0 1 .22-.33L6.6 1.52c.33-.44.66-.88 1-1.31.22-.28.43-.27.66 0l2.5 3.16.67.86a.41.41 0 0 1 .07.14.11.11 0 0 1-.09.15H9.68c-.12 0-.16 0-.16.16v5.5a.33.33 0 0 1-.18.36z"/></g></g></svg><svg width="56" height="58" viewBox="0 0 56 58" id="L1VzZXJzL2t1a2tvbWFoL3Byb2plY3RzL3NjdnQtY29uc3RydWN0b3Ivc3JjL21vZHVsZXMvc2xpZGVyL3Nwcml0ZS11cGxvYWQuc3Zn" xmlns="http://www.w3.org/2000/svg"><title>sprite-upload</title><g fill-rule="nonzero" fill="#D6D6D6"><path d="M0 37h7.76v13.193H48.2V37.04h7.791V53.818a3.922 3.922 0 0 1-4.215 4.17H4.256a4.06 4.06 0 0 1-4.194-3.202.546.546 0 0 0-.062-.103V37zM23.254 36a1.07 1.07 0 0 1-.631-1.119V17.124v-.64h-5.18a6.102 6.102 0 0 1-.878-.06c-.513-.08-.7-.389-.464-.858a7.88 7.88 0 0 1 .76-1.09c2.082-2.806 4.213-5.612 6.344-8.439a205.866 205.866 0 0 1 3.423-4.344c.75-.939 1.49-.909 2.25 0L37.42 12.15c.77.992 1.536 1.95 2.299 2.876.11.142.19.305.237.48a.353.353 0 0 1-.003.344.345.345 0 0 1-.293.175c-.261.046-.525.073-.79.08h-5.14c-.414 0-.562.09-.552.54V34.85c.065.48-.187.947-.622 1.149h-9.303z"/></g></svg><svg width="19" height="22" viewBox="0 0 19 22" id="L1VzZXJzL2t1a2tvbWFoL3Byb2plY3RzL3NjdnQtY29uc3RydWN0b3Ivc3JjL21vZHVsZXMvcmVtb3ZlL3Nwcml0ZS10cmFzaC5zdmc=" x="66" y="30" xmlns="http://www.w3.org/2000/svg"><title>sprite-trash</title><g fill-rule="nonzero" fill="#FFF"><path d="M9.854 0c.416.105.822.242 1.214.41.813.408 1.38 1.147 1.534 2 0 .15.096.19.256.19h3.345c1.277-.04 2.406.772 2.695 1.94.358 1.198-.253 2.463-1.448 3a.267.267 0 0 0-.17.3v11.58c.054 1.014-.571 1.953-1.567 2.35a2.843 2.843 0 0 1-1.065.23H4.42a2.75 2.75 0 0 1-1.918-.764 2.417 2.417 0 0 1-.745-1.826V7.88a.338.338 0 0 0-.234-.37C.397 6.987-.204 5.812.063 4.66c.216-1.088 1.18-1.906 2.354-2 .927-.05 1.865 0 2.792 0h.958c.118 0 .171 0 .203-.15C6.562 1.206 7.654.18 9.044 0H9.854zm6.136 7.8H2.982v11.57c-.037.377.1.75.378 1.024s.668.422 1.071.406h10.11c.228.002.453-.042.66-.13.533-.24.848-.768.79-1.32V7.8zm-6.488-4H2.78a1.504 1.504 0 0 0-1.34.7 1.318 1.318 0 0 0 .04 1.44c.283.452.819.709 1.374.66h13.392c.492.004.954-.226 1.227-.611.273-.386.32-.874.126-1.299-.218-.56-.806-.915-1.438-.87L9.502 3.8zm1.822-1.2c-.192-.88-1.062-1.48-2.014-1.39-.832.054-1.515.638-1.651 1.41l3.665-.02z"/><path d="M12.992 15.034v3.329a.65.65 0 0 1-.193.514.433.433 0 0 1-.465.09c-.178-.062-.307-.244-.33-.463a2.495 2.495 0 0 1 0-.303v-6.364-.242c0-.329.223-.595.498-.595s.498.266.498.595v3.399l-.008.04zM9.992 15.034v3.329a.65.65 0 0 1-.193.514.433.433 0 0 1-.465.09c-.178-.062-.307-.244-.33-.463a2.495 2.495 0 0 1 0-.303v-6.364-.242c0-.329.223-.595.498-.595s.498.266.498.595v3.399l-.008.04zM6.992 15.034v3.329a.65.65 0 0 1-.193.514.433.433 0 0 1-.465.09c-.178-.062-.307-.244-.33-.463a2.495 2.495 0 0 1 0-.303v-6.364-.242c0-.329.223-.595.498-.595s.498.266.498.595v3.399l-.008.04z"/></g></svg></svg>