<?xml version="1.0" encoding="UTF-8"?>
<svg width="10px" height="24px" viewBox="0 0 10 24" version="1.1" xmlns="http://www.w3.org/2000/svg" xmlns:xlink="http://www.w3.org/1999/xlink">
    <!-- Generator: Sketch 44.1 (41455) - http://www.bohemiancoding.com/sketch -->
    <title>sprite-file</title>
    <desc>Created with Sketch.</desc>
    <defs></defs>
    <g id="Symbols" stroke="none" stroke-width="1" fill="none" fill-rule="evenodd">
        <g id="sprite-file" fill-rule="nonzero" fill="#000000">
            <path d="M1.37787889,22.5404703 C0.446147952,21.6547992 -0.0518377056,20.4412105 0.00427803083,19.1930116 C0.00427803083,15.196046 0.00427803083,11.2490424 0.00427803083,7.28205398 C0.00427803083,6.76244845 0.120505796,6.28281257 0.765041586,6.28281257 C1.40957738,6.28281257 1.42014354,6.79242569 1.42014354,7.28205398 C1.42014354,11.1691031 1.42014354,15.0661446 1.42014354,18.9531937 C1.42014354,20.9516765 2.40279646,22.1807434 4.14621294,22.5704476 C5.18887788,22.8270021 6.29835096,22.6190863 7.15877,22.0058928 C8.01918904,21.3926994 8.53629425,20.4414043 8.56286802,19.4228371 C8.61569882,14.1868121 8.56286802,8.96077956 8.56286802,3.72475456 C8.61178601,3.09858235 8.37524477,2.48251171 7.91289471,2.03190189 C7.45054465,1.58129206 6.80651559,1.33915229 6.14321727,1.36654483 C4.80653374,1.45731648 3.78964841,2.53863912 3.85036045,3.80469387 C3.85036045,7.13549858 3.85036045,10.4663033 3.85036045,13.797108 C3.85036045,14.666448 4.28357303,15.1660687 4.97037346,15.1760611 C5.65717389,15.1860535 6.14321727,14.6464632 6.14321727,13.7471459 C6.14321727,11.7486631 6.14321727,9.72020303 6.14321727,7.66176572 C6.14321727,7.5018871 6.14321727,7.33201606 6.14321727,7.17213743 C6.14321727,6.67251672 6.29114352,6.26282775 6.88284851,6.26282775 C7.47455349,6.26282775 7.54851662,6.68250914 7.54851662,7.13216777 C7.54851662,8.36456551 7.54851662,9.59696325 7.54851662,10.829361 C7.54851662,11.8985493 7.54851662,12.9677376 7.54851662,14.0369259 C7.56129257,15.3604487 6.46364697,16.4559154 5.0654689,16.5150446 C4.37316166,16.5485446 3.69735313,16.3079951 3.20021168,15.8511189 C2.70307023,15.3942427 2.42946872,14.7622782 2.4450611,14.1068728 C2.4450611,10.5195962 2.3922303,6.93231949 2.4450611,3.34504283 C2.56456447,1.57893095 4.03515802,0.162673014 5.90019558,0.0175689266 C7.80949655,-0.163281497 9.54637762,1.07081706 9.89420424,2.85541453 C9.96707254,3.20421112 10.002473,3.55908015 9.99986585,3.91461043 C9.99986585,9.03738806 9.99986585,14.1601657 9.99986585,19.2829433 C9.97064808,21.1634768 8.79818795,22.8597388 6.98851011,23.6396359 C5.05590066,24.3857429 2.8380219,23.9512435 1.37787889,22.5404703 L1.37787889,22.5404703 Z" id="Shape"></path>
        </g>
    </g>
</svg>