<?xml version="1.0" encoding="UTF-8"?>
<svg width="17px" height="10px" viewBox="0 0 17 10" version="1.1" xmlns="http://www.w3.org/2000/svg" xmlns:xlink="http://www.w3.org/1999/xlink">
    <!-- Generator: Sketch 45.1 (43504) - http://www.bohemiancoding.com/sketch -->
    <title>sprite-checkbox</title>
    <desc>Created with Sketch.</desc>
    <defs></defs>
    <g id="Symbols" stroke="none" stroke-width="1" fill="none" fill-rule="evenodd">
        <g id="sprite-checkbox" fill-rule="nonzero" fill="#0000F9">
            <path d="M6.23645437,8.75872459 L15.7775639,0.187911529 C16.0744877,-0.0788162704 16.5359117,-0.0592383382 16.808183,0.231640065 C17.0804544,0.522518467 17.0604695,0.974547607 16.7635456,1.24127541 L7.22243614,9.81208847 C6.92551226,10.0788163 6.46408835,10.0592383 6.191817,9.76835994 C5.91954565,9.47748153 5.93953048,9.02545239 6.23645437,8.75872459 Z" id="Rectangle-path"></path>
            <path d="M1.26791869,3.19963453 L7.25524416,8.70482671 C7.56066675,8.98565495 7.57842367,9.45855592 7.29490535,9.76108059 C7.01138704,10.0636053 6.5339561,10.0811937 6.22853352,9.80036547 L0.241208043,4.29517329 C-0.0642145451,4.01434505 -0.081971466,3.54144408 0.20154685,3.23891941 C0.485065166,2.93639474 0.9624961,2.9188063 1.26791869,3.19963453 Z" id="Rectangle-path"></path>
        </g>
    </g>
</svg>