<?xml version="1.0" encoding="UTF-8"?>
<svg width="19px" height="22px" viewBox="0 0 19 22" version="1.1" xmlns="http://www.w3.org/2000/svg" xmlns:xlink="http://www.w3.org/1999/xlink">
    <!-- Generator: Sketch 44.1 (41455) - http://www.bohemiancoding.com/sketch -->
    <title>sprite-trash</title>
    <desc>Created with Sketch.</desc>
    <defs></defs>
    <g id="Symbols" stroke="none" stroke-width="1" fill="none" fill-rule="evenodd">
        <g id="sprite-trash" fill-rule="nonzero" fill="#FFFFFF">
            <path d="M9.8536207,0 C10.2697272,0.105236009 10.675926,0.242363339 11.0681235,0.41 C11.8813672,0.818226179 12.4477241,1.55657915 12.6022322,2.41 C12.6022322,2.56 12.698114,2.6 12.857917,2.6 L16.2031264,2.6 C17.4799325,2.5592756 18.6090879,3.37199623 18.8984703,4.54 C19.2560079,5.73759748 18.6448035,7.00313535 17.4495898,7.54 C17.3244051,7.5896476 17.253318,7.71475933 17.2791333,7.84 C17.2791333,11.7 17.2791333,15.56 17.2791333,19.42 C17.3340897,20.4341682 16.7086587,21.3726725 15.7130639,21.77 C15.3784111,21.9141676 15.0158375,21.9924439 14.6477106,22 C11.23858,22 7.82944941,22 4.42031881,22 C3.69701486,22.0004401 3.00462692,21.7247297 2.50229558,21.2362389 C1.99996424,20.7477481 1.73089643,20.0884935 1.75693553,19.41 C1.75693553,15.5633333 1.75693553,11.72 1.75693553,7.88 C1.78252336,7.72003612 1.68450374,7.56529761 1.52255781,7.51 C0.39729024,6.98661802 -0.204369911,5.81176948 0.0630237689,4.66 C0.279246465,3.5721343 1.24272888,2.7536924 2.41745459,2.66 C3.34431197,2.61 4.28182288,2.66 5.20868026,2.66 L6.16749824,2.66 C6.28468711,2.66 6.33795477,2.66 6.36991537,2.51 C6.5618861,1.20566104 7.65437035,0.180194428 9.04395218,0 L9.12918045,0 L9.8536207,0 Z M15.9900558,7.8 L2.98209184,7.8 L2.98209184,8.07 C2.98209184,9.27 2.98209184,10.4733333 2.98209184,11.68 C2.98209184,14.24 2.98209184,16.8033333 2.98209184,19.37 C2.94481966,19.7465834 3.08275871,20.1199113 3.36043197,20.3939662 C3.63810524,20.6680211 4.02841361,20.816057 4.43097235,20.8 L14.5411753,20.8 C14.7687636,20.8019226 14.9940977,20.7575735 15.2016943,20.67 C15.7337633,20.4290998 16.0487181,19.9017525 15.9900558,19.35 C15.9900558,15.5766667 15.9900558,11.7933333 15.9900558,8 L15.9900558,7.8 Z M9.50205411,3.8 L2.77967471,3.8 C2.22888784,3.78128485 1.71259838,4.05123942 1.43963462,4.50067275 C1.16667086,4.95010608 1.18220109,5.5046488 1.47994367,5.94 C1.76279038,6.39168477 2.29851714,6.64896351 2.85424944,6.6 L16.2457406,6.6 C16.738479,6.60369067 17.1999357,6.37375919 17.4727705,5.98860396 C17.7456054,5.60344873 17.7929792,5.11507473 17.5987393,4.69 C17.381036,4.13036515 16.7934034,3.77489945 16.1605123,3.82 L9.50205411,3.8 Z M11.3238083,2.6 C11.1318711,1.72044351 10.2619573,1.11991236 9.31029051,1.21 C8.47840951,1.26433927 7.79514078,1.84776463 7.65899288,2.62 L11.3238083,2.6 Z" id="Shape"></path>
            <path d="M12.9915643,15.0343189 C12.9915643,16.1437566 12.9915643,17.2531943 12.9915643,18.362632 C13.0034369,18.5618157 12.9309571,18.7548401 12.7985746,18.8765926 C12.6661921,18.998345 12.4915582,19.0325915 12.3335819,18.9677798 C12.1564576,18.9052077 12.0272434,18.7229885 12.0045906,18.5038331 C11.9984698,18.4031079 11.9984698,18.3019844 12.0045906,18.2012592 C12.0045906,16.0832418 12.0045906,13.9618624 12.0045906,11.8371212 C12.0045906,11.7564348 12.0045906,11.6757484 12.0045906,11.595062 C12.0045906,11.2664183 12.2274206,11 12.5022953,11 C12.77717,11 13,11.2664183 13,11.595062 C13,12.7246713 13,13.8643664 13,14.9939757 L12.9915643,15.0343189 Z" id="Shape"></path>
            <path d="M9.99156433,15.0343189 C9.99156433,16.1437566 9.99156433,17.2531943 9.99156433,18.362632 C10.0034369,18.5618157 9.93095712,18.7548401 9.79857462,18.8765926 C9.66619212,18.998345 9.49155819,19.0325915 9.33358187,18.9677798 C9.15645763,18.9052077 9.02724342,18.7229885 9.00459064,18.5038331 C8.99846979,18.4031079 8.99846979,18.3019844 9.00459064,18.2012592 C9.00459064,16.0832418 9.00459064,13.9618624 9.00459064,11.8371212 C9.00459064,11.7564348 9.00459064,11.6757484 9.00459064,11.595062 C9.00459064,11.2664183 9.22742061,11 9.50229532,11 C9.77717002,11 10,11.2664183 10,11.595062 C10,12.7246713 10,13.8643664 10,14.9939757 L9.99156433,15.0343189 Z" id="Shape"></path>
            <path d="M6.99156433,15.0343189 C6.99156433,16.1437566 6.99156433,17.2531943 6.99156433,18.362632 C7.00343685,18.5618157 6.93095712,18.7548401 6.79857462,18.8765926 C6.66619212,18.998345 6.49155819,19.0325915 6.33358187,18.9677798 C6.15645763,18.9052077 6.02724342,18.7229885 6.00459064,18.5038331 C5.99846979,18.4031079 5.99846979,18.3019844 6.00459064,18.2012592 C6.00459064,16.0832418 6.00459064,13.9618624 6.00459064,11.8371212 C6.00459064,11.7564348 6.00459064,11.6757484 6.00459064,11.595062 C6.00459064,11.2664183 6.22742061,11 6.50229532,11 C6.77717002,11 7,11.2664183 7,11.595062 C7,12.7246713 7,13.8643664 7,14.9939757 L6.99156433,15.0343189 Z" id="Shape"></path>
        </g>
    </g>
</svg>