<svg xmlns="http://www.w3.org/2000/svg" viewBox="0 0 16 16">
    <defs>
        <style>.cls-1{fill:#3c4048;}</style>
    </defs>
    <title>Ресурс 3</title>
    <g id="Слой_2" data-name="Слой 2">
        <g id="Слой_1-2" data-name="Слой 1">
            <path class="cls-1"
                  d="M0,10.24H2.22v3.62H13.77V10.25H16v.14q0,2.23,0,4.47A1.1,1.1,0,0,1,14.8,16H1.22A1.15,1.15,0,0,1,0,15.12l0,0Z"/>
            <path class="cls-1"
                  d="M6.62,10.57a.33.33,0,0,1-.18-.34q0-2.68,0-5.37c0-.06,0-.12,0-.19H4.92l-.26,0c-.15,0-.2-.12-.13-.26a2.39,2.39,0,0,1,.22-.33L6.6,1.52c.33-.44.66-.88,1-1.31.22-.28.43-.27.66,0l2.5,3.16.67.86a.41.41,0,0,1,.07.14.11.11,0,0,1-.09.15l-.23,0H9.68c-.12,0-.16,0-.16.16,0,1.83,0,3.67,0,5.5a.33.33,0,0,1-.18.36Z"/>
        </g>
    </g>
</svg>