<?xml version="1.0" encoding="UTF-8"?>
<svg width="16px" height="30px" viewBox="0 0 16 30" version="1.1" xmlns="http://www.w3.org/2000/svg" xmlns:xlink="http://www.w3.org/1999/xlink">
    <!-- Generator: Sketch 44.1 (41455) - http://www.bohemiancoding.com/sketch -->
    <title>sprite-phone</title>
    <desc>Created with Sketch.</desc>
    <defs></defs>
    <g id="Symbols" stroke="none" stroke-width="1" fill="none" fill-rule="evenodd">
        <g id="sprite-phone" fill-rule="nonzero" fill="#000000">
            <path d="M12.1315742,30 L3.86610606,30 C1.73091464,30 2.61485534e-16,28.3121135 0,26.23 L0,3.77 C-2.61485534e-16,1.68788649 1.73091464,3.82478046e-16 3.86610606,0 L12.1418291,0 C14.2730146,0.00551250531 15.9976878,1.69178549 15.9976803,3.77 L15.9976803,26.23 C15.9976803,27.2298662 15.5903595,28.1887804 14.865324,28.8957926 C14.1402885,29.6028047 13.1569293,30 12.1315742,30 Z M12.1315742,0.62 L3.86610606,0.62 C2.08206018,0.62 0.635805241,2.03030304 0.635805241,3.77 L0.635805241,26.23 C0.635805241,27.969697 2.08206018,29.38 3.86610606,29.38 L12.1418291,29.38 C13.0003336,29.3826577 13.8246102,29.0519573 14.4326289,28.4609294 C15.0406476,27.8699015 15.3823892,27.0671674 15.3823849,26.23 L15.3823849,3.77 C15.3851667,2.93026416 15.0429022,2.12443004 14.4320553,1.53252607 C13.8212084,0.940622105 12.992682,0.611972623 12.1315742,0.62 Z" id="Shape"></path>
            <rect id="Rectangle-path" x="1.80486649" y="5.64" width="12.3776923" height="18.51"></rect>
            <path d="M10.7061399,3.55 C10.717645,3.64559213 10.6894168,3.74169623 10.6277583,3.81685348 C10.5660997,3.89201073 10.4761459,3.93996186 10.3779823,3.95 L5.60944301,3.95 C5.40903481,3.92403929 5.26731664,3.74572284 5.29154039,3.55 L5.29154039,3.55 C5.27360846,3.35450259 5.41957496,3.18102819 5.61969794,3.16 L10.3779823,3.16 C10.5781053,3.18102819 10.7240718,3.35450259 10.7061399,3.55 L10.7061399,3.55 Z" id="Shape"></path>
            <path d="M8.39878213,26.13 L7.59889812,26.13 C7.38367989,26.13 7.20921104,26.3001318 7.20921104,26.51 L7.20921104,27.12 C7.20921104,27.3298682 7.38367989,27.5 7.59889812,27.5 L8.38852721,27.5 C8.60374544,27.5 8.77821429,27.3298682 8.77821429,27.12 L8.77821429,26.51 C8.77828746,26.3039758 8.6099852,26.1354217 8.39878213,26.13 L8.39878213,26.13 Z" id="Shape"></path>
            <path d="M7.99884013,25.24 C7.10964901,25.24 6.38881718,25.9429129 6.38881718,26.81 C6.38881718,27.6770871 7.10964901,28.38 7.99884013,28.38 C8.88803125,28.38 9.60886308,27.6770871 9.60886308,26.81 C9.60886308,25.9429129 8.88803125,25.24 7.99884013,25.24 Z M8.92178322,27.12 C8.91619719,27.3977523 8.68366979,27.6200534 8.39878213,27.62 L7.59889812,27.62 C7.31571623,27.62 7.08615196,27.3961424 7.08615196,27.12 L7.08615196,26.51 C7.08615196,26.2338576 7.31571623,26.01 7.59889812,26.01 L8.38852721,26.01 C8.52628396,26.0073128 8.65935304,26.0588025 8.75774107,26.1528636 C8.85612911,26.2469246 8.91155585,26.3756408 8.91152829,26.51 L8.92178322,27.12 Z" id="Shape"></path>
        </g>
    </g>
</svg>