<?xml version="1.0" encoding="UTF-8"?>
<svg width="17px" height="14px" viewBox="0 0 17 14" version="1.1" xmlns="http://www.w3.org/2000/svg" xmlns:xlink="http://www.w3.org/1999/xlink">
    <!-- Generator: Sketch 45.1 (43504) - http://www.bohemiancoding.com/sketch -->
    <title>sprite-tw</title>
    <desc>Created with Sketch.</desc>
    <defs></defs>
    <g id="Symbols" stroke="none" stroke-width="1" fill="none" fill-rule="evenodd">
        <g id="sprite-tw" fill-rule="nonzero" fill="#FFFFFF">
            <path d="M0,12.4813039 C1.7938989,12.5680584 3.56204688,12.0293825 5,10.9580265 C3.51606866,10.8594214 2.23762441,9.88123034 1.76,8.47896718 L3.22,8.47896718 C1.64736756,8.02569534 0.548336597,6.61369203 0.5,4.98438958 L2,5.38263204 C0.552389725,4.26030442 0.129764256,2.26165396 1,0.653502815 C2.80086439,2.83762355 5.43653526,4.17313022 8.27,4.33724558 C8.2379941,3.88965279 8.24133771,3.4402489 8.28,2.99317728 C8.43952445,1.70322292 9.33716275,0.623018599 10.58,0.225392169 C11.791523,-0.239691536 13.1635477,0.0273162238 14.11,0.912360415 C14.2611545,1.07301698 14.4978217,1.12094118 14.7,1.03183315 L16.55,0.374733092 C16.2685227,1.10334233 15.799497,1.74541895 15.19,2.2365166 L17,1.74866958 C16.6086347,2.35334416 16.1146042,2.88563083 15.54,3.32172731 C15.394639,3.41462557 15.3106222,3.57811885 15.32,3.74983795 C15.3705652,6.31862612 14.4374212,8.81031496 12.71,10.719081 C11.0908975,12.5969746 8.7886514,13.7573655 6.31,13.944845 C4.39287522,14.1445797 2.45814509,13.7993774 0.73,12.9492388 C0.48,12.7700297 0.24,12.6206888 0,12.4813039 Z" id="Shape"></path>
        </g>
    </g>
</svg>