<?xml version="1.0" encoding="UTF-8"?>
<svg width="21px" height="12px" viewBox="0 0 21 12" version="1.1" xmlns="http://www.w3.org/2000/svg" xmlns:xlink="http://www.w3.org/1999/xlink">
    <!-- Generator: Sketch 45.1 (43504) - http://www.bohemiancoding.com/sketch -->
    <title>sprite-vk</title>
    <desc>Created with Sketch.</desc>
    <defs></defs>
    <g id="Symbols" stroke="none" stroke-width="1" fill="none" fill-rule="evenodd">
        <g id="sprite-vk" fill-rule="nonzero" fill="#FFFFFF">
            <path d="M20.4623756,10.3274637 C19.7429953,9.51746368 18.9836493,8.70746368 18.2243034,7.97746368 C17.4649575,7.24746368 17.225164,6.79746368 18.0244755,5.76746368 C18.6539333,4.91746368 19.3133653,4.09746368 19.9028576,3.22746368 C20.2663985,2.70073344 20.5744453,2.13772882 20.8220658,1.54746368 C21.0718507,0.947463678 20.8220658,0.657463678 20.1726252,0.657463678 L16.9853706,0.657463678 C16.2260246,0.657463678 16.1460935,0.717463678 15.8563431,1.41746368 C15.3509011,2.68152648 14.689681,3.87745079 13.8880385,4.97746368 C13.6653441,5.27751654 13.4107346,5.55246339 13.1286925,5.79746368 C13.0210266,5.93454644 12.8426384,5.9950633 12.6738814,5.951755 C12.5051244,5.90844669 12.3778406,5.7694849 12.3493638,5.59746368 C12.2407702,5.27537567 12.1867381,4.93738417 12.1895015,4.59746368 C12.1895015,3.49746368 12.2594413,2.39746368 12.2894155,1.29746368 C12.3327396,1.07009624 12.2815463,0.834878631 12.1476613,0.646145802 C12.0137763,0.457412973 11.8087801,0.331489552 11.5800265,0.297463678 C10.2175689,-0.139741249 8.74621723,-0.0938322621 7.41361527,0.427463678 C7.22991771,0.5238247 7.05592889,0.637684615 6.89406279,0.767463678 C6.92390824,0.810226265 6.95733333,0.850370926 6.99397673,0.887463678 L7.09389066,0.887463678 C7.59871531,0.98720356 7.993376,1.3822042 8.09303005,1.88746368 C8.3996994,3.0593748 8.36503107,4.29463033 7.99311611,5.44746368 C7.8532366,5.93746368 7.48355502,6.04746368 7.10388206,5.69746368 C6.77839787,5.41081414 6.50168418,5.07306775 6.28458776,4.69746368 C5.65512995,3.61746368 5.04565493,2.47746368 4.48613687,1.31746368 C4.34753562,0.844523999 3.88530878,0.54318112 3.39707494,0.607463678 C2.4878581,0.607463678 1.57864126,0.607463678 0.669424421,0.607463678 C0.0599493966,0.627463678 -0.13987848,0.897463678 0.099914972,1.44746368 C1.20023408,4.0501854 2.61993223,6.50572504 4.32627457,8.75746368 C5.20372216,9.99038347 6.40803579,10.9532788 7.80327963,11.5374637 C8.92025862,11.9044404 10.09715,12.0538002 11.2702933,11.9774637 C11.999665,11.9774637 12.1795101,11.7774637 12.2694327,11.0574637 C12.2867894,10.6230468 12.3606828,10.1927509 12.4892433,9.77746368 C12.6790798,9.20746368 13.1386839,9.07746368 13.648245,9.41746368 C13.8599258,9.56134293 14.0543704,9.72911197 14.2277459,9.91746368 C14.5674533,10.2774637 14.8671951,10.6874637 15.2268853,11.0174637 C15.5865754,11.3474637 16.006214,11.7974637 16.4258525,11.8374637 C17.7992464,11.9311001 19.1765226,11.9544639 20.5522982,11.9074637 C20.9219797,11.9074637 21.081842,11.5874637 20.9619453,11.2074637 C20.8581656,10.8826445 20.6880422,10.5829694 20.4623756,10.3274637 Z" id="Shape"></path>
        </g>
    </g>
</svg>