<svg xmlns="http://www.w3.org/2000/svg" viewBox="0 0 16 16"><defs><style>.cls-1{fill:#fff;}</style></defs><title>Ресурс 3</title><g id="Слой_2" data-name="Слой 2"><g id="Слой_1-2" data-name="Слой 1"><path class="cls-1" d="M8,16H4.81A4.67,4.67,0,0,1,.26,12.78,5,5,0,0,1,0,11.24C0,9.08,0,6.92,0,4.77A4.7,4.7,0,0,1,3.72.12,5,5,0,0,1,4.8,0h6.4a4.7,4.7,0,0,1,4.68,3.71A4.94,4.94,0,0,1,16,4.79c0,2.13,0,4.27,0,6.4a4.7,4.7,0,0,1-3.7,4.68,5.18,5.18,0,0,1-1.1.11C10.13,16,9.06,16,8,16Zm6.56-8c0-1.07,0-2.13,0-3.2A3.78,3.78,0,0,0,14.47,4a3.21,3.21,0,0,0-3.18-2.57c-2.2,0-4.39,0-6.59,0A3.14,3.14,0,0,0,4,1.53,3.22,3.22,0,0,0,1.46,4.71c0,2.2,0,4.39,0,6.59a3.14,3.14,0,0,0,.07.67,3.22,3.22,0,0,0,3.2,2.57h6.54a3.26,3.26,0,0,0,3.27-3.25C14.55,10.2,14.55,9.11,14.55,8Z"/><path class="cls-1" d="M12.36,8A4.36,4.36,0,1,1,8,3.64,4.38,4.38,0,0,1,12.36,8ZM10.91,8A2.91,2.91,0,1,0,8,10.91,2.9,2.9,0,0,0,10.91,8Z"/><path class="cls-1" d="M12.31,3a.66.66,0,1,1-.67.63A.66.66,0,0,1,12.31,3Z"/></g></g></svg>