<?xml version="1.0" encoding="UTF-8"?>
<svg width="12px" height="20px" viewBox="0 0 12 20" version="1.1" xmlns="http://www.w3.org/2000/svg" xmlns:xlink="http://www.w3.org/1999/xlink">
    <!-- Generator: Sketch 45.1 (43504) - http://www.bohemiancoding.com/sketch -->
    <title>sprite-ok</title>
    <desc>Created with Sketch.</desc>
    <defs></defs>
    <g id="Symbols" stroke="none" stroke-width="1" fill="none" fill-rule="evenodd">
        <g id="sprite-ok" fill-rule="nonzero" fill="#FFFFFF">
            <path d="M5.99646201,16.5943495 C5.94720094,16.6679219 5.89401639,16.7387124 5.83714571,16.8064051 L3.12876863,19.5833236 C2.83433567,19.9436289 2.35413045,20.0873299 1.91398185,19.9468474 C1.44396155,19.8081851 1.08542304,19.4213747 0.977998596,18.9370589 C0.894744272,18.6001727 0.976251898,18.2432375 1.19705851,17.9777598 C1.26172738,17.8958331 1.3315753,17.8182526 1.40616115,17.7455084 L4.88124791,14.2213464 C4.93924732,14.1760868 5.00285315,14.1387423 5.07043602,14.1102697 L5.00073514,14.0294866 L4.00500827,13.8881162 C2.69827895,13.672634 1.47908768,13.0842015 0.490092431,12.1916714 C0.118390751,11.9444032 -0.0670473443,11.4922665 0.0221008035,11.0506104 C0.109898744,10.5665012 0.461215422,10.1749869 0.928212252,10.0408218 C1.36205897,9.95492836 1.81107699,10.0696937 2.1529563,10.3538563 C2.43695524,10.562371 2.73658511,10.748064 3.04911048,10.90924 C4.28894334,11.5046735 5.67753056,11.7053416 7.03201795,11.4848195 C7.84553283,11.3784657 8.63046718,11.1108385 9.34210428,10.6971844 C9.52133511,10.5861077 9.69060868,10.4447373 9.86983952,10.3235626 C10.2045781,10.0489763 10.6432677,9.9414625 11.0647118,10.030724 C11.5304283,10.1669809 11.8808513,10.5574992 11.9708232,11.0405125 C12.0716241,11.468697 11.9061892,11.916087 11.5526179,12.1714757 C10.6503695,12.9944758 9.54632675,13.5560368 8.35633468,13.7972352 C7.92817213,13.8881162 7.49005231,13.9487035 7.02206068,14.0294866 L7.17141971,14.1910528 L10.7062501,17.7859 C11.1401254,18.1484176 11.2536228,18.7750743 10.9750963,19.2702891 C10.8279788,19.5814379 10.5616644,19.8179403 10.2381171,19.9247689 C9.91456985,20.0315975 9.56200194,19.9994371 9.26244613,19.8357707 C9.13493286,19.7568812 9.01782602,19.6618727 8.91394173,19.5530299 L6.19560738,16.8064051 C6.14582104,16.7559157 6.10599196,16.6953283 5.99646201,16.5943495 Z" id="Shape"></path>
            <path d="M6,0.000358168145 C8.05186376,-0.0239739377 9.91525812,1.19330853 10.7173899,3.08204398 C11.5195216,4.97077943 11.1015451,7.15694292 9.65923601,8.61655976 C8.21692688,10.0761766 6.03590454,10.5201999 4.13773563,9.74065406 C2.23956671,8.96110823 1.00014427,7.11236619 1,5.06035817 C0.999805164,2.28906209 3.22889875,0.0332193798 6,0.000358168145 Z M6,7.55035817 C7.3698392,7.56096247 8.49097127,6.46306973 8.50905816,5.0933089 C8.52714505,3.72354806 7.43539286,2.59643548 6.06575126,2.57086655 C4.69610966,2.54529762 3.56305021,3.63087668 3.53,5.00035817 C3.51389658,5.66762576 3.76636105,6.31342246 4.23074752,6.79284979 C4.69513399,7.27227712 5.33255812,7.54519132 6,7.55035817 L6,7.55035817 Z" id="Shape"></path>
        </g>
    </g>
</svg>