<?xml version="1.0" encoding="UTF-8"?>
<svg width="9px" height="18px" viewBox="0 0 9 18" version="1.1" xmlns="http://www.w3.org/2000/svg" xmlns:xlink="http://www.w3.org/1999/xlink">
    <!-- Generator: Sketch 45.1 (43504) - http://www.bohemiancoding.com/sketch -->
    <title>sprite-fb</title>
    <desc>Created with Sketch.</desc>
    <defs></defs>
    <g id="Symbols" stroke="none" stroke-width="1" fill="none" fill-rule="evenodd">
        <g id="sprite-fb" fill-rule="nonzero" fill="#FFFFFF">
            <path d="M9,0.0149875104 L9,3.01248959 L7.2543554,3.01248959 C6.14634146,3.01248959 5.91637631,3.24229808 5.88501742,4.30141549 C5.88501742,4.84096586 5.88501742,5.38051624 5.88501742,5.96003331 L8.7804878,5.96003331 L8.43554007,9.00749376 L5.89547038,9.00749376 L5.89547038,18 L1.63066202,18 L1.63066202,9.00749376 L0,9.00749376 L0,6.00999167 L1.59930314,6.00999167 C1.59930314,5.84013322 1.59930314,5.70024979 1.59930314,5.57035803 C1.59930314,4.83097419 1.59930314,4.08159867 1.59930314,3.34221482 C1.55891675,2.4818316 1.89151351,1.6436106 2.5186554,1.02523381 C3.14579728,0.406857016 4.01196727,0.0630655568 4.91289199,0.074937552 C6.271777,-0.0449625312 7.6097561,0.0149875104 9,0.0149875104 Z" id="Shape"></path>
        </g>
    </g>
</svg>